<svg fill="none" height="20" viewBox="0 0 20 20" width="20" xmlns="http://www.w3.org/2000/svg"><g fill="#212121"><path d="m17.9099 2.18197c.1953.19526.1953.51184 0 .70711l-4.612 4.61205c-.106-.12693-.2186-.25022-.3377-.3694-.1192-.11918-.2425-.23175-.3695-.3377l4.6121-4.61206c.1953-.19526.5118-.19526.7071 0z"/><path d="m12.2531 7.83883c-1.7574-1.75736-4.60665-1.75736-6.36401 0l-.42158.42158 6.36399 6.36399.4216-.4216c1.7573-1.7574 1.7573-4.60661 0-6.36397z"/><path d="m1.74276 10.5921 2.90137-1.74087.00232.00234 6.50005 6.50003c.0315.0315.0662.058.103.0793l-1.74968 2.9162c-.07922.132-.21484.2202-.36766.239-.15281.0188-.30577-.0338-.41464-.1427l-7.07107-7.071c-.10887-.1089-.16151-.2619-.1427-.4147s.10698-.2884.23901-.3676z"/></g></svg>