<?xml version="1.0" standalone="no"?>
<!DOCTYPE svg PUBLIC "-//W3C//DTD SVG 20010904//EN"
 "http://www.w3.org/TR/2001/REC-SVG-20010904/DTD/svg10.dtd">
<svg version="1.0" xmlns="http://www.w3.org/2000/svg"
 width="64.000000pt" height="64.000000pt" viewBox="0 0 64.000000 64.000000"
 preserveAspectRatio="xMidYMid meet">

<g transform="translate(0.000000,64.000000) scale(0.100000,-0.100000)"
fill="#000000" stroke="none">
<path d="M20 320 l0 -300 300 0 300 0 0 150 0 150 -30 0 -30 0 0 -120 0 -120
-240 0 -240 0 0 240 0 240 120 0 120 0 0 30 0 30 -150 0 -150 0 0 -300z"/>
<path d="M410 590 c0 -30 1 -30 52 -30 l53 0 -108 -108 -107 -107 22 -23 23
-22 107 107 108 108 0 -53 c0 -51 0 -52 30 -52 l30 0 0 105 0 105 -105 0 -105
0 0 -30z"/>
</g>
</svg>
